<?xml version="1.0" encoding="utf-8"?>
<!-- Svg Vector Icons : http://www.onlinewebfonts.com/icon -->
<!DOCTYPE svg PUBLIC "-//W3C//DTD SVG 1.1//EN" "http://www.w3.org/Graphics/SVG/1.1/DTD/svg11.dtd">
<svg version="1.1" xmlns="http://www.w3.org/2000/svg" xmlns:xlink="http://www.w3.org/1999/xlink" x="0px" y="0px" viewBox="0 0 1000 1000" enable-background="new 0 0 1000 1000" xml:space="preserve">
<metadata> Svg Vector Icons : http://www.onlinewebfonts.com/icon </metadata>
<g><path d="M990,131.2C990,64.3,935.7,10,868.8,10H131.2C64.3,10,10,64.3,10,131.2v737.6C10,935.7,64.3,990,131.2,990h737.6c66.9,0,121.2-54.3,121.2-121.2V131.2z M501.3,294.1c112.8,0,204.2,91.4,204.2,204.2c0,112.8-91.4,204.2-204.2,204.2c-112.8,0-204.2-91.4-204.2-204.2C297.1,385.5,388.5,294.1,501.3,294.1z M908.3,255c0,22.5-18.3,40.8-40.8,40.8H745c-22.6,0-40.8-18.3-40.8-40.8V132.5c0-22.5,18.3-40.8,40.8-40.8h122.5c22.6,0,40.8,18.3,40.8,40.8V255z M870.1,908.3h-735c-22.5,0-43.4-20.9-43.4-43.4V418.3h135.4c-7.7,25.5-11.7,52.7-11.7,80.6c0,76.4,29.7,147.8,83.7,201.8c54,54,125.8,83.6,202.1,83.6c76.3,0,148.1-29.8,202.1-83.8c54-54,83.7-125.2,83.7-201.5c0-27.9-4-55.1-11.7-80.6h132.9v446.6C908.3,887.5,892.6,908.3,870.1,908.3z"/></g>
</svg>